<?xml version="1.0" encoding="utf-8"?>
<!-- Generator: Adobe Illustrator 16.0.0, SVG Export Plug-In . SVG Version: 6.00 Build 0)  -->
<!DOCTYPE svg PUBLIC "-//W3C//DTD SVG 1.1//EN" "http://www.w3.org/Graphics/SVG/1.1/DTD/svg11.dtd">
<svg version="1.1" id="Layer_1" xmlns="http://www.w3.org/2000/svg" xmlns:xlink="http://www.w3.org/1999/xlink" x="0px" y="0px"
	 width="500px" height="500px" viewBox="0 0 500 500" enable-background="new 0 0 500 500" xml:space="preserve">
<g>
	<g>
		<path fill="#FADC64" d="M434.3,426.7c-28.4,0-43.5-11.7-55.6-21c-10.9-8.4-18.8-14.5-36.3-14.5s-25.4,6.1-36.3,14.5
			c-12.1,9.4-27.2,21-55.6,21c-28.4,0-43.5-11.7-55.6-21c-10.9-8.4-18.8-14.5-36.3-14.5c-17.5,0-25.4,6.1-36.3,14.5
			c-12.1,9.4-27.2,21-55.6,21c-28.4,0-44.3-11.7-56.3-21c-3.7-2.8-6.8-5.4-10.6-7.5v81.1c0,9.9,8.1,18,18,18h464c9.9,0,18-8.1,18-18
			v-81.6c-3.8,2.3-6.9,5-10.9,8C477,415.1,462.7,426.7,434.3,426.7z M434.3,426.7"/>
	</g>
</g>
<g>
	<g>
		<path fill="#CB1A30" d="M18,292.9c-9.9,0-18,8.1-18,18v55.9c13.3,4.2,22.2,11.1,29.8,17c10.9,8.4,19.2,14.5,36.7,14.5
			c17.5,0,25.6-6.1,36.5-14.5c12.1-9.4,27.3-21,55.7-21c28.4,0,43.5,11.7,55.6,21c10.9,8.4,18.8,14.5,36.3,14.5
			c17.5,0,25.4-6.1,36.3-14.5c12.1-9.4,27.2-21,55.6-21c28.4,0,43.5,11.7,55.6,21c10.9,8.4,18.8,14.5,36.3,14.5
			c17.5,0,24.6-6.1,35.5-14.5c8-6.2,16.9-13.3,30.2-17.5v-55.4c0-9.9-8.1-18-18-18H18z M0,292.9"/>
	</g>
</g>
<path fill="#FADC64" d="M228.3,140.7c2.8,1.1,6.7,1.9,8.7,2.6v0.7h26.6c19.6-5,35.2-18.9,35.2-42.7c0-26.9-48.4-97.4-48.4-97.4
	s-49,70.4-49,97.3C201.3,122,212.8,134.7,228.3,140.7z"/>
<g>
	<path fill="#CB1A30" d="M44.2,191.6c0-9.9,8.1-18,18-18h375.5c9.9,0,18,8.1,18,18v59.1c0,9.9-8.1,18-18,18H62.2
		c-9.9,0-18-8.1-18-18V191.6z"/>
</g>
</svg>
