<?xml version="1.0" encoding="utf-8"?>
<!-- Generator: Adobe Illustrator 16.0.0, SVG Export Plug-In . SVG Version: 6.00 Build 0)  -->
<!DOCTYPE svg PUBLIC "-//W3C//DTD SVG 1.1//EN" "http://www.w3.org/Graphics/SVG/1.1/DTD/svg11.dtd">
<svg version="1.1" id="Layer_1" xmlns="http://www.w3.org/2000/svg" xmlns:xlink="http://www.w3.org/1999/xlink" x="0px" y="0px"
	 width="500px" height="500px" viewBox="0 0 500 500" enable-background="new 0 0 500 500" xml:space="preserve">
<g>
	<g>
		<path fill="#2E2E2E" d="M211.3,229v185.1h-34.4V257.9h-39.1V229H211.3z"/>
	</g>
	<g>
		<path fill="#2E2E2E" d="M237.6,311.6l6.6-13.1c6.5,4.3,16.4,7.3,25.6,7.3c10.9,0,15.4-3,15.4-8.1c0-14.1-45.5-0.8-45.5-30.2
			c0-13.9,12.5-23,32.4-23c9.8,0,20.9,2.3,27.6,6.3l-6.6,13.1c-7-4.1-14.1-5.5-21.1-5.5c-10.5,0-15.4,3.4-15.4,8.3
			c0,14.9,45.5,1.7,45.5,30.4c0,13.8-12.7,22.7-33.3,22.7C256.5,319.8,244.2,316.2,237.6,311.6z"/>
		<path fill="#2E2E2E" d="M361.2,314.9c-4.1,3.3-10.3,5-16.5,5c-16.1,0-25.3-8.5-25.3-24.8v-35.4h-12.1v-13.8h12.1V229h17.2v16.8
			h19.7v13.8h-19.7v35c0,7.2,3.6,11,10.2,11c3.6,0,7-1,9.6-3L361.2,314.9z"/>
	</g>
</g>
<path fill="#35894D" d="M439.8,83H396V36.8C396,19,384.9,5,367.1,5H363c-17.8,0-29,14-29,31.8V83H165V36.8C165,19,154.8,5,136.9,5
	h-6.1C113,5,103,19,103,36.8V83H60.9C37.7,83,2,98.3,2,140.5v302.7C2,466.3,18.6,500,60.9,500h378.9c23.2,0,57.2-14.7,57.2-56.8
	V140.5C497,117.4,482.1,83,439.8,83z M452,443.2c0,10.5-1.3,11.8-12.4,11.8H60.9c-10.7,0-13.9-1.1-13.9-11.8V180h405V443.2z"/>
</svg>
