<?xml version="1.0" encoding="utf-8"?>
<!-- Generator: Adobe Illustrator 16.0.0, SVG Export Plug-In . SVG Version: 6.00 Build 0)  -->
<!DOCTYPE svg PUBLIC "-//W3C//DTD SVG 1.1//EN" "http://www.w3.org/Graphics/SVG/1.1/DTD/svg11.dtd">
<svg version="1.1" id="Layer_1" xmlns="http://www.w3.org/2000/svg" xmlns:xlink="http://www.w3.org/1999/xlink" x="0px" y="0px"
	 width="500px" height="500px" viewBox="0 0 500 500" enable-background="new 0 0 500 500" xml:space="preserve">
<path fill="#CB1A30" d="M441.3,83H397V36.3C397,18.5,386.4,5,368.6,5h-4.1C346.6,5,335,18.5,335,36.3V83H166V36.3
	C166,18.5,156.3,5,138.4,5h-6.1C114.5,5,104,18.5,104,36.3V83H62.4C39.2,83,3,97.8,3,140v302.7C3,465.8,20.1,500,62.4,500h378.9
	c23.2,0,56.7-15.2,56.7-57.3V140C498,116.9,483.6,83,441.3,83z M453,442.7c0,10.5-0.8,12.3-11.9,12.3H62.4
	c-10.7,0-14.4-1.6-14.4-12.3V180h405V442.7z"/>
<g>
	
		<line fill="none" stroke="#2E2E2B" stroke-width="36" stroke-linecap="round" stroke-miterlimit="10" x1="195.8" y1="260.7" x2="306.2" y2="371.2"/>
	
		<line fill="none" stroke="#2E2E2B" stroke-width="36" stroke-linecap="round" stroke-miterlimit="10" x1="306.2" y1="260.7" x2="195.8" y2="371.2"/>
</g>
</svg>
