<?xml version="1.0" encoding="utf-8"?>
<!-- Generator: Adobe Illustrator 16.0.0, SVG Export Plug-In . SVG Version: 6.00 Build 0)  -->
<!DOCTYPE svg PUBLIC "-//W3C//DTD SVG 1.1//EN" "http://www.w3.org/Graphics/SVG/1.1/DTD/svg11.dtd">
<svg version="1.1" id="Layer_1" xmlns="http://www.w3.org/2000/svg" xmlns:xlink="http://www.w3.org/1999/xlink" x="0px" y="0px"
	 width="500px" height="500px" viewBox="0 0 500 500" enable-background="new 0 0 500 500" xml:space="preserve">
<g>
	<g>
		<path fill="#35894D" d="M382.5,1.4c-10.2-1.1-19.4,6.3-20.5,16.5l-5.2,48c-1.3-1.3-2.7-2.4-4.4-3.3C321.7,46.5,287,38,252.1,38
			C132.8,38,35.7,135,35.7,254.4c0,33.6,7.5,65.7,22.2,95.6c3.2,6.6,9.8,10.4,16.7,10.4c2.8,0,5.6-0.6,8.2-1.9
			c9.2-4.6,13-15.7,8.5-24.9c-12.2-24.7-18.4-51.3-18.4-79.1c0-98.8,80.4-179.2,179.1-179.2c29.1,0,56.7,6.8,82.3,20.1l-55.7,6
			c-10.2,1.1-17.6,10.3-16.5,20.5c1,9.5,9.1,16.6,18.5,16.6c0.7,0,1.3,0,2-0.1l87.3-9.4c0.3,0,0.6,0,0.8,0c5.1,0,9.7-2.1,13.1-5.5
			c3.6-3.5,5.8-8.4,5.6-13.8l9.5-87.6C400.1,11.7,392.7,2.5,382.5,1.4z"/>
		<path fill="#35894D" d="M441.3,149.7c-4.6-9.2-15.7-13-24.9-8.5c-9.2,4.5-13,15.7-8.5,24.9c12.2,24.7,18.4,51.4,18.4,79.2
			c0,98.8-80.3,179.2-179.1,179.2c-29.1,0-56.7-6.8-82.4-20.1l55.7-6c10.2-1.1,17.6-10.3,16.5-20.5c-1.1-10.2-10.3-17.7-20.5-16.5
			l-87.5,9.4c-6-0.2-11.4,2.4-15,6.8c-2.8,3.4-4.4,7.7-4.3,12.4l-9.4,87.7c-1.1,10.2,6.3,19.4,16.5,20.5c0.7,0.1,1.4,0.1,2,0.1
			c9.4,0,17.5-7.1,18.5-16.6l5.2-48c1.3,1.3,2.7,2.4,4.4,3.3c30.8,16.2,65.5,24.7,100.4,24.7c119.3,0,216.3-97.1,216.3-216.4
			C463.5,211.7,456,179.5,441.3,149.7z"/>
	</g>
	<g>
		<path fill="#2E2E2E" d="M241.2,273.6c0,24.8-20.2,40.6-45.7,40.6c-34.1,0-54.1-22-54.1-62.2c0-42.9,25-66.5,61.3-66.5
			c12.5,0,24.5,2.7,32.9,8l-8.6,17.5c-6.8-4.5-15-6.1-23.8-6.1c-23.6,0-38.4,14.7-38.4,43.1v0.2c7.5-8.8,19.5-13,33.4-13
			C222.8,235.2,241.2,250.2,241.2,273.6z M218.7,274.7c0-13-9.8-21.3-25-21.3c-15,0-25.4,9.1-25.4,21.4c0,11.8,9.3,21.1,25.9,21.1
			C208.7,295.9,218.7,287.7,218.7,274.7z"/>
		<path fill="#2E2E2E" d="M253.4,249.8c0-41.1,22.5-64.3,52.2-64.3c29.8,0,52.3,23.2,52.3,64.3c0,41.1-22.5,64.3-52.3,64.3
			C275.9,314.1,253.4,290.9,253.4,249.8z M334.5,249.8c0-30.2-11.8-44.1-28.9-44.1c-17,0-28.8,13.9-28.8,44.1
			c0,30.2,11.8,44.1,28.8,44.1C322.7,294,334.5,280,334.5,249.8z"/>
	</g>
</g>
</svg>
