<?xml version="1.0" encoding="utf-8"?>
<!-- Generator: Adobe Illustrator 16.0.0, SVG Export Plug-In . SVG Version: 6.00 Build 0)  -->
<!DOCTYPE svg PUBLIC "-//W3C//DTD SVG 1.1//EN" "http://www.w3.org/Graphics/SVG/1.1/DTD/svg11.dtd">
<svg version="1.1" id="Layer_1" xmlns="http://www.w3.org/2000/svg" xmlns:xlink="http://www.w3.org/1999/xlink" x="0px" y="0px"
	 width="500px" height="500px" viewBox="0 0 500 500" enable-background="new 0 0 500 500" xml:space="preserve">
<path fill="#CB1A30" d="M498.5,184c0,14.6-2.4,29-7,42.7c-21.7,98.1-201.5,216.9-209.6,222c-2.5,1.6-5.2,2.3-8.2,2.3
	c-2.8,0-5.6-0.7-8.1-2.3c-2.1-1.3-98.2-68.4-151.7-114.3c-6.4-5.5-7.1-15.1-1.8-21.5c5.5-6.4,15.2-7.1,21.6-1.8
	c39.8,34.2,123.5,95.4,140.3,106.6c56.3-36.7,173-130.3,188.2-199.1c4-12.2,5.8-23.3,5.8-34.5c0-39.1-13.5-75.3-47.8-94.1
	c-43.9-24.4-102.4-6-134.6,32.5c-5.8,7-17.5,7-23.5,0c-32.1-38.7-90.7-56.8-134.6-32.7c-34.3,19-48.5,55-48.5,94.1
	c0,11.2,1.8,22.3,5.4,33c2.2,10.1,6.5,19.9,12,30.2h100.1l30.5-70.2c2.7-5.9,8.9-9.8,15.3-9.1c6.5,0.6,12,5.2,13.5,11.6l22.5,95.1
	l29-47.6c2.8-4.6,7.7-7.5,13.1-7.5h73.4c8.3,0,15.2,6.9,15.2,15.3c0,8.3-6.8,15.1-15.2,15.1h-65L285,322c-2.8,4.6-7.7,7.2-12.9,7.2
	c-0.9,0-1.6,0-2.4-0.1c-6.2-0.9-11-5.5-12.5-11.5l-20.5-86.5c0,0-16.2,37.3-16.2,37.3c-1.6,3.7-4.4,7.7-8.5,8.5
	c-5.1,0.9-9.1,0.8-13.7,0.8c-5.5-0.1-11,0-16.5,0c-7,0-32.2,0-39.2,0c-6.5,0-13,0-19.5,0c-6.9,0-13.8,0-20.8,0c-6.7,0-13.3,0-20,0
	c-6.5,0-13,0-19.5,0c-5.6,0-11.3,0-16.9,0c-4.6,0-9.3,0-13.9,0c-3.3,0-0.5,0-3.8,0c-1.4,0-2.7,0-4.1,0c-0.1,0-0.3,0-0.4,0
	c-15.4,0-22.3-6.9-22.3-15.4c0-8.3,6.8-15.2,15.2-15.2h45.8c-3.3-7.6-5.8-15-7.4-22c-4.2-12.4-6.5-26.6-6.5-41.2
	c0-50.1,20.3-96.5,64.4-120.7C164,35,231.7,51,273.9,90.7C316,51,383.6,35,434.8,63.3C478.9,87.5,498.5,133.9,498.5,184z M498.5,184
	"/>
</svg>
