<?xml version="1.0" encoding="utf-8"?>
<!-- Generator: Adobe Illustrator 16.0.0, SVG Export Plug-In . SVG Version: 6.00 Build 0)  -->
<!DOCTYPE svg PUBLIC "-//W3C//DTD SVG 1.1//EN" "http://www.w3.org/Graphics/SVG/1.1/DTD/svg11.dtd">
<svg version="1.1" id="Layer_1" xmlns="http://www.w3.org/2000/svg" xmlns:xlink="http://www.w3.org/1999/xlink" x="0px" y="0px"
	 width="500px" height="500px" viewBox="0 0 500 500" enable-background="new 0 0 500 500" xml:space="preserve">
<path fill="#35894D" d="M252.5,138.6c0,0,52.5,4.3,89.1-32.3C378.4,69.7,373.9,17,373.9,17c-0.5-6.7-6.4-12.7-13.2-13.2
	c0,0-52.3-4.5-89.1,32.3c-36.6,36.6-32.3,89.1-32.3,89.1C239.9,132,245.7,138,252.5,138.6L252.5,138.6z M252.5,138.6"/>
<path fill="#CB1A30" d="M261.8,165.8l-22.3,0.9c-99-43.7-175.1,14.5-175.1,113.6c0,102.6,73.3,259.9,185.7,211.3
	c106.7,47,185.6-108.7,185.6-211.3C435.6,182,351,125.5,261.8,165.8z"/>
</svg>
