<?xml version="1.0" encoding="utf-8"?>
<!-- Generator: Adobe Illustrator 16.0.0, SVG Export Plug-In . SVG Version: 6.00 Build 0)  -->
<!DOCTYPE svg PUBLIC "-//W3C//DTD SVG 1.1//EN" "http://www.w3.org/Graphics/SVG/1.1/DTD/svg11.dtd">
<svg version="1.1" id="Layer_1" xmlns="http://www.w3.org/2000/svg" xmlns:xlink="http://www.w3.org/1999/xlink" x="0px" y="0px"
	 width="500px" height="500px" viewBox="0 0 500 500" enable-background="new 0 0 500 500" xml:space="preserve">
<g opacity="0.4">
	<path fill="#2E2E2E" d="M245.2,16.3c2.7-7.2,7-7.2,9.7,0l56,152.1c2.7,7.2,11.1,13.1,18.8,13.1l154-0.4c7.7,0,9.5,4.4,4,9.7
		l-115.4,112c-5.5,5.4-8.6,15.9-6.8,23.4l37.4,157.6c1.8,7.5-2.1,10.2-8.5,6l-132.5-85.7c-6.5-4.2-17-4.2-23.5,0l-132.5,85.7
		c-6.5,4.2-10.3,1.5-8.5-6l37.4-157.6c1.8-7.5-1.3-18-6.8-23.4l-115.4-112c-5.5-5.4-3.7-9.7,4-9.7l154,0.4c7.7,0,16.2-5.9,18.8-13.1
		L245.2,16.3z"/>
</g>
<g>
	<path fill="#FFFFFF" d="M244.5,269.9c0,20.5-15.1,33.1-39.6,33.1h-21v26.8h-17.3v-93h38.3C229.4,236.8,244.5,249.3,244.5,269.9z
		 M227.1,269.9c0-11.7-7.8-18.5-23-18.5h-20.2v36.9h20.2C219.3,288.4,227.1,281.6,227.1,269.9z"/>
	<path fill="#FFFFFF" d="M285.3,251.4h-30.8v-14.6h78.9v14.6h-30.8v78.4h-17.3V251.4z"/>
</g>
</svg>
