<?xml version="1.0" encoding="utf-8"?>
<!-- Generator: Adobe Illustrator 16.0.0, SVG Export Plug-In . SVG Version: 6.00 Build 0)  -->
<!DOCTYPE svg PUBLIC "-//W3C//DTD SVG 1.1//EN" "http://www.w3.org/Graphics/SVG/1.1/DTD/svg11.dtd">
<svg version="1.1" id="Layer_1" xmlns="http://www.w3.org/2000/svg" xmlns:xlink="http://www.w3.org/1999/xlink" x="0px" y="0px"
	 width="500px" height="500px" viewBox="0 0 500 500" enable-background="new 0 0 500 500" xml:space="preserve">
<path opacity="0.4" fill="#2E2E2E" d="M252.6,138.9c0,0,52.5,4.3,89.1-32.3c36.7-36.6,32.2-89.2,32.2-89.2
	c-0.5-6.7-6.4-12.7-13.2-13.2c0,0-52.3-4.5-89.1,32.3c-36.6,36.6-32.3,89.1-32.3,89.1C239.9,132.4,245.7,138.4,252.6,138.9
	L252.6,138.9z M252.6,138.9"/>
<path opacity="0.4" fill="#2E2E2E" d="M261.8,166.2l-22.3,0.9c-99-43.7-175.1,14.5-175.1,113.6c0,102.6,73.3,259.9,185.7,211.3
	c106.7,47,185.6-108.7,185.6-211.3C435.6,182.4,351,125.9,261.8,166.2z"/>
</svg>
