<?xml version="1.0" encoding="utf-8"?>
<!-- Generator: Adobe Illustrator 16.0.0, SVG Export Plug-In . SVG Version: 6.00 Build 0)  -->
<!DOCTYPE svg PUBLIC "-//W3C//DTD SVG 1.1//EN" "http://www.w3.org/Graphics/SVG/1.1/DTD/svg11.dtd">
<svg version="1.1" id="Layer_1" xmlns="http://www.w3.org/2000/svg" xmlns:xlink="http://www.w3.org/1999/xlink" x="0px" y="0px"
	 width="500px" height="500px" viewBox="0 0 500 500" enable-background="new 0 0 500 500" xml:space="preserve">
<g>
	<g>
		<path fill="#CB1A30" d="M404.6,2.5H95.3C44.1,2.5,2.5,44.1,2.5,95.3v309.3c0,51.3,41.5,92.9,92.7,92.9h309.3
			c51.3,0,92.8-41.5,92.8-92.9V95.3C497.5,44.1,455.9,2.5,404.6,2.5z M333.3,192.3c-2.1,2.6-6.5,4.7-9.8,4.7H176.3
			c-3.3,0-7.7-2.1-9.7-4.7l-56.2-70.3c-2.1-2.6-2.1-6.8-0.1-9.5c0,0,44.2-59,139.7-59c95.6,0,139.8,59,139.8,59
			c2,2.6,1.9,6.9-0.2,9.5L333.3,192.3z M345.1,231"/>
	</g>
	<path fill="#2E2E2E" d="M276.8,167.8c-0.8,2.3-2.2,4.5-4,6.3c-7.1,7.5-19,7.8-26.4,0.7c-7.5-7.2-7.8-19-0.6-26.5l63.1-66.1
		L276.8,167.8L276.8,167.8z M276.8,167.8"/>
</g>
</svg>
