<?xml version="1.0" encoding="utf-8"?>
<!-- Generator: Adobe Illustrator 16.0.0, SVG Export Plug-In . SVG Version: 6.00 Build 0)  -->
<!DOCTYPE svg PUBLIC "-//W3C//DTD SVG 1.1//EN" "http://www.w3.org/Graphics/SVG/1.1/DTD/svg11.dtd">
<svg version="1.1" id="Layer_1" xmlns="http://www.w3.org/2000/svg" xmlns:xlink="http://www.w3.org/1999/xlink" x="0px" y="0px"
	 width="500px" height="500px" viewBox="0 0 500 500" enable-background="new 0 0 500 500" xml:space="preserve">
<g>
	<path fill="none" stroke="#CB1A30" stroke-width="32" stroke-miterlimit="10" d="M473.2,249.5c0,123.1-99.8,222.9-222.9,222.9
		S27.3,372.6,27.3,249.5S127.1,26.6,250.2,26.6S473.2,126.4,473.2,249.5z"/>
	<path fill="none" stroke="#CB1A30" stroke-width="32" stroke-miterlimit="10" d="M408.8,249.5c0,87.6-71,158.6-158.6,158.6
		s-158.6-71-158.6-158.6c0-87.6,71-158.6,158.6-158.6S408.8,161.9,408.8,249.5z"/>
	<path fill="none" stroke="#CB1A30" stroke-width="32" stroke-miterlimit="10" d="M341.4,249.5c0,50.3-40.8,91.1-91.1,91.1
		s-91.1-40.8-91.1-91.1c0-50.3,40.8-91.1,91.1-91.1S341.4,199.2,341.4,249.5z"/>
	<path fill="#CB1A30" d="M294.9,249.5c0,24.7-20,44.7-44.7,44.7c-24.7,0-44.7-20-44.7-44.7c0-24.7,20-44.7,44.7-44.7
		C274.9,204.8,294.9,224.8,294.9,249.5z"/>
</g>
<path fill="#2E2E2E" stroke="#FFFFFF" stroke-width="11" stroke-miterlimit="10" d="M495.2,105l-35.7-22.3l-15.3-39.2
	c-1.1-2.8-3.5-4.8-6.7-5.5c-3.1-0.7-6.7,0-9.8,2l-52,31.9c-3.7,2.3-6.4,6-7.2,9.9l-11.7,66.1l-79.5,65.9l0,0L247,238.7
	c-2.7,2.2-4.4,5.5-4.7,9c-0.3,3.5,0.7,7,3,9.7l1.6,1.9c4.7,5.6,13,6.4,18.6,1.7l20.6-17.1l0,0l86.9-72l70.3,0.2
	c4,0,8.1-1.9,11.1-5.2l41-45.1c2.5-2.8,3.8-6.1,3.8-9.3C499.3,109.3,497.7,106.6,495.2,105z"/>
</svg>
