<?xml version="1.0" encoding="utf-8"?>
<!-- Generator: Adobe Illustrator 16.0.0, SVG Export Plug-In . SVG Version: 6.00 Build 0)  -->
<!DOCTYPE svg PUBLIC "-//W3C//DTD SVG 1.1//EN" "http://www.w3.org/Graphics/SVG/1.1/DTD/svg11.dtd">
<svg version="1.1" id="Layer_1" xmlns="http://www.w3.org/2000/svg" xmlns:xlink="http://www.w3.org/1999/xlink" x="0px" y="0px"
	 width="500px" height="500px" viewBox="0 0 500 500" enable-background="new 0 0 500 500" xml:space="preserve">
<path fill="#CB1A30" d="M384.4,63.4c-50.7-28-116.8-13-160.3,25.4C180.5,50.4,114.6,35.4,63.9,63.4C19.2,88-0.6,134.8-0.6,185.5
	c0,14.7,2.4,29.3,7,43.2c22,99.2,203.8,219.3,212,224.5c1.2,0.8,1.6,1.3,3.6,1.7v0.6c0,0,1.9-0.1,2.5-0.2c0.6,0.1,1.5,0.2,2.5,0.2
	v-0.6c1-0.4,2.1-0.9,3.3-1.7c8.1-5.2,189.9-125.3,211.8-224.5c4.7-13.9,6.9-28.4,6.9-43.2C449,134.8,429,88,384.4,63.4z"/>
<g>
	<path fill="#2E2E2E" stroke="#FFFFFF" stroke-width="20" stroke-miterlimit="10" d="M491,375.6h-79.9v77.5h-87.2v-77.5H244v-82.3
		h79.9v-77.5h87.2v77.5H491V375.6z"/>
</g>
</svg>
