<?xml version="1.0" encoding="utf-8"?>
<!-- Generator: Adobe Illustrator 16.0.0, SVG Export Plug-In . SVG Version: 6.00 Build 0)  -->
<!DOCTYPE svg PUBLIC "-//W3C//DTD SVG 1.1//EN" "http://www.w3.org/Graphics/SVG/1.1/DTD/svg11.dtd">
<svg version="1.1" id="Layer_1" xmlns="http://www.w3.org/2000/svg" xmlns:xlink="http://www.w3.org/1999/xlink" x="0px" y="0px"
	 width="500px" height="500px" viewBox="0 0 500 500" enable-background="new 0 0 500 500" xml:space="preserve">
<g>
	<path fill="#35894D" stroke="#358A4D" stroke-width="9" stroke-miterlimit="10" d="M323.5,29.3l147.1,147.1
		c4.8,4.8,4.8,12.6,0.1,17.3c-4.8,4.8-12.6,4.8-17.4,0l-64.9-64.9L128.8,388.4l64.9,64.9c4.8,4.8,4.8,12.6,0.1,17.3
		c-4.8,4.8-12.6,4.8-17.4,0L29.3,323.5c-4.7-4.7-4.7-12.5,0.1-17.3c4.7-4.7,12.5-4.7,17.2,0l64.9,64.9l259.6-259.6l-64.9-64.9
		c-4.7-4.7-4.7-12.5,0.1-17.3C311,24.6,318.8,24.6,323.5,29.3L323.5,29.3z M10.7,353.9c-4.8,4.8-4.9,12.5-0.1,17.3l118.3,118.3
		c4.7,4.7,12.5,4.7,17.3-0.1c4.7-4.7,4.7-12.5,0-17.2L27.9,353.9C23.1,349,15.4,349.1,10.7,353.9L10.7,353.9z M353.9,10.6
		c-4.8,4.8-4.9,12.5-0.1,17.3l118.3,118.3c4.7,4.7,12.5,4.7,17.3-0.1c4.7-4.7,4.7-12.5,0-17.2L371.2,10.6
		C366.4,5.8,358.7,5.9,353.9,10.6L353.9,10.6z M11.5,422.1c-4.7,4.7-4.7,12.5,0.1,17.3l49,49c4.8,4.8,12.5,4.7,17.2,0
		c4.8-4.8,4.9-12.5,0.1-17.3l-49-49C24.1,417.3,16.3,417.3,11.5,422.1L11.5,422.1z M422.1,11.5c-4.7,4.7-4.7,12.5,0.1,17.3l49,49
		c4.8,4.8,12.5,4.7,17.2,0c4.7-4.7,4.8-12.4,0-17.2l-49-49C434.6,6.8,426.9,6.8,422.1,11.5L422.1,11.5z M407.2,26.5"/>
</g>
</svg>
