<?xml version="1.0" encoding="utf-8"?>
<!-- Generator: Adobe Illustrator 16.0.0, SVG Export Plug-In . SVG Version: 6.00 Build 0)  -->
<!DOCTYPE svg PUBLIC "-//W3C//DTD SVG 1.1//EN" "http://www.w3.org/Graphics/SVG/1.1/DTD/svg11.dtd">
<svg version="1.1" id="Layer_1" xmlns="http://www.w3.org/2000/svg" xmlns:xlink="http://www.w3.org/1999/xlink" x="0px" y="0px"
	 width="500px" height="500px" viewBox="0 0 500 500" enable-background="new 0 0 500 500" xml:space="preserve">
<path fill="#35894D" d="M242.4,71.4c5.5,0,10.9-2.3,14.9-6.2c3.9-3.9,6.2-9.3,6.2-14.9c0-5.5-2.2-10.9-6.2-14.9
	c-3.9-3.9-9.3-6.2-14.9-6.2c-5.5,0-11,2.2-14.9,6.2c-3.9,3.9-6.2,9.3-6.2,14.9c0,5.5,2.2,11,6.2,14.9
	C231.4,69.2,236.8,71.4,242.4,71.4L242.4,71.4z M242.4,71.4"/>
<path fill="#35894D" d="M88.7,113.5c5.5,0,11-2.2,14.9-6.2c3.9-3.9,6.2-9.3,6.2-14.9c0-5.5-2.2-10.9-6.2-14.9
	c-3.9-3.9-9.3-6.2-14.9-6.2c-5.5,0-11,2.3-14.9,6.2c-3.9,3.9-6.2,9.3-6.2,14.9c0,5.5,2.2,11,6.2,14.9
	C77.7,111.2,83.1,113.5,88.7,113.5L88.7,113.5z M88.7,113.5"/>
<path fill="#35894D" d="M396,113.5c5.5,0,10.9-2.2,14.9-6.2c3.9-3.9,6.2-9.3,6.2-14.9c0-5.5-2.2-10.9-6.2-14.9
	c-3.9-3.9-9.3-6.2-14.9-6.2c-5.5,0-11,2.3-14.9,6.2c-3.9,3.9-6.2,9.3-6.2,14.9c0,5.5,2.2,11,6.2,14.9
	C385,111.2,390.5,113.5,396,113.5L396,113.5z M396,113.5"/>
<g>
	<g>
		<path fill="#CB1A30" d="M172.5,306.4c39.8,34.8,66.2,89.8,66.5,86.9c-4.2-31.5-14.5-68-24.2-95.3c-19.7-56-50.8-105.8-92.4-133.5
			c-11.1,30.6-16,62.2-15.1,93.2C127.6,269.5,148.6,285.5,172.5,306.4z"/>
		<path fill="#CB1A30" d="M156.3,323.7c-41.7-38.9-93.6-61.1-150.2-64.4c18.8,114.9,114.8,203,231.3,211.4
			C229.9,414.8,197.8,362.4,156.3,323.7z"/>
	</g>
	<g>
		<path fill="#CB1A30" d="M327.5,306.4c-39.8,34.8-66.2,89.8-66.5,86.9c4.2-31.5,14.5-68,24.2-95.3c19.7-56,50.8-105.8,92.4-133.5
			c11.1,30.6,16,62.2,15.1,93.2C372.4,269.5,351.4,285.5,327.5,306.4z"/>
		<path fill="#CB1A30" d="M343.7,323.7c41.7-38.9,93.6-61.1,150.2-64.4c-18.8,114.9-114.8,203-231.3,211.4
			C270.1,414.8,302.2,362.4,343.7,323.7z"/>
	</g>
</g>
<path fill="#CB1A30" d="M250.6,116.9c-0.3,0.3-0.4,0.7-0.4,1c-0.3-0.3-0.5-0.7-0.8-1c-21.9,26.7-38.9,56.6-50.8,88.7
	c17.7,28.5,32.4,60.7,44,94.8c2.6,7.8,5.2,15.5,7.6,23.2c1.5-7.7,4.6-15.4,7.2-23.2c11.6-34.1,26.3-66.3,44-94.8
	C289.6,173.5,272.5,143.6,250.6,116.9z"/>
</svg>
