<?xml version="1.0" encoding="utf-8"?>
<!-- Generator: Adobe Illustrator 23.0.0, SVG Export Plug-In . SVG Version: 6.00 Build 0)  -->
<svg version="1.1" id="Camada_1" xmlns="http://www.w3.org/2000/svg" xmlns:xlink="http://www.w3.org/1999/xlink" x="0px" y="0px"
	 viewBox="0 0 428.2 456.7" style="enable-background:new 0 0 428.2 456.7;" xml:space="preserve">
<style type="text/css">
	.st0{fill-rule:evenodd;clip-rule:evenodd;}
</style>
<path class="st0" d="M246.2,0c-34.7,0-63.3,28.7-63.3,63.4c0,34.7,28.6,63.2,63.3,63.2s63.2-28.5,63.2-63.2
	C309.3,28.7,280.9,0,246.2,0z M100,59.5c-13.3,0.3-26.6,5.6-36.6,15.6c-20.8,20.8-20.7,54.9,0,75.7c20.8,20.8,55,20.9,75.8,0.1
	c20.8-20.8,20.8-55.1,0-75.9C128.5,64.3,114.2,59.2,100,59.5L100,59.5z M355.6,100.3c-3.2,0.1-6.3,1.3-8.7,3.7
	c-4.9,4.9-4.9,13.1,0,18s13.1,4.9,18,0s5-13.1,0-18C362.3,101.4,358.9,100.2,355.6,100.3L355.6,100.3z M48.5,191.6
	c-26.6,0-48.5,22-48.5,48.7s21.9,48.5,48.5,48.5s48.7-21.9,48.7-48.5S75.2,191.6,48.5,191.6L48.5,191.6z M408.5,220.6
	c-10.8,0-19.6,8.9-19.6,19.7s8.8,19.6,19.6,19.6s19.7-8.8,19.7-19.6S419.3,220.6,408.5,220.6z M101.3,324.9c-11,0-22,4.1-30.2,12.4
	c-16.5,16.5-16.5,43.8,0.1,60.4c16.5,16.5,43.7,16.5,60.3,0s16.6-43.8,0.1-60.4C123.3,329.1,112.3,324.9,101.3,324.9L101.3,324.9z
	 M355.2,342.8c-6.2,0.2-12.3,2.6-17,7.2c-9.6,9.6-9.6,25.4,0,35.1s25.5,9.7,35.1,0.1c9.6-9.6,9.6-25.5,0-35.2
	C368.4,345,361.8,342.6,355.2,342.8L355.2,342.8z M227.8,386.7c-18,0.5-32.7,15.4-32.7,33.5c0,18.4,15.2,33.5,33.6,33.5
	s33.4-15.1,33.4-33.5s-15.1-33.5-33.4-33.5C228.4,386.7,228.1,386.7,227.8,386.7z"/>
</svg>
