<?xml version="1.0" encoding="utf-8"?>
<!-- Generator: Adobe Illustrator 23.0.0, SVG Export Plug-In . SVG Version: 6.00 Build 0)  -->
<svg version="1.1" id="Camada_1" xmlns="http://www.w3.org/2000/svg" xmlns:xlink="http://www.w3.org/1999/xlink" x="0px" y="0px"
	 viewBox="0 0 512 512" style="enable-background:new 0 0 512 512;" xml:space="preserve">
<style type="text/css">
	.st0{fill:#F17A59;}
</style>
<path class="st0" d="M320,64c0-35.3-28.7-64-64-64s-64,28.7-64,64s28.7,64,64,64S320,99.3,320,64z M224,160c-35.3,0-64,28.7-64,64
	v48c0,17.7,14.3,32,32,32h1.8l11.1,99.5c1.8,16.2,15.5,28.5,31.8,28.5h38.7c16.3,0,30-12.3,31.8-28.5l11-99.5h1.8
	c17.7,0,32-14.3,32-32v-48c0-35.3-28.7-64-64-64H224z M132.3,394.2c13-2.4,21.7-14.9,19.3-27.9s-14.9-21.7-27.9-19.3
	c-32.4,5.9-60.9,14.2-82,24.8c-10.5,5.3-20.3,11.7-27.8,19.6C6.4,399.5,0,410.5,0,424c0,21.4,15.5,36.1,29.1,45
	c14.7,9.6,34.3,17.3,56.4,23.4C130.2,504.7,190.4,512,256,512s125.8-7.3,170.4-19.6c22.1-6.1,41.8-13.8,56.4-23.4
	c13.7-8.9,29.1-23.6,29.1-45c0-13.5-6.4-24.5-14-32.6c-7.5-7.9-17.3-14.3-27.8-19.6c-21-10.6-49.5-18.9-82-24.8
	c-13-2.4-25.5,6.3-27.9,19.3s6.3,25.5,19.3,27.9c30.2,5.5,53.7,12.8,69,20.5c3.2,1.6,5.8,3.1,7.9,4.5c3.6,2.4,3.6,7.2,0,9.6
	c-8.8,5.7-23.1,11.8-43,17.3C374.3,457,318.5,464,256,464s-118.3-7-157.7-17.9c-19.9-5.5-34.2-11.6-43-17.3c-3.6-2.4-3.6-7.2,0-9.6
	c2.1-1.4,4.8-2.9,7.9-4.5C78.5,407,102,399.8,132.3,394.2L132.3,394.2z"/>
</svg>
