<?xml version="1.0" encoding="utf-8"?>
<!-- Generator: Adobe Illustrator 23.0.0, SVG Export Plug-In . SVG Version: 6.00 Build 0)  -->
<svg version="1.1" id="Layer_1" xmlns="http://www.w3.org/2000/svg" xmlns:xlink="http://www.w3.org/1999/xlink" x="0px" y="0px"
	 viewBox="0 0 40 40" style="enable-background:new 0 0 40 40;" xml:space="preserve">
<style type="text/css">
	.st0{fill:#F17A59;}
</style>
<g>
	<circle class="st0" cx="20" cy="20" r="2.4"/>
	<path class="st0" d="M38,17.7h-3c-0.9-6-6.4-11.8-13.4-12.6V2c0-1.1-0.9-2-2-2s-2,0.9-2,2v3C11.6,5.9,5.9,11.7,5,17.7H2
		c-1.1,0-2,0.9-2,2s0.9,2,2,2h3c0.9,7,6.6,12.4,12.6,13.3v3c0,1.1,0.9,2,2,2s2-0.9,2-2v-3c7-0.9,12.5-6.3,13.4-13.3h3
		c1.1,0,2-0.9,2-2S39.1,17.7,38,17.7z M21.6,30.9V27c0-1.1-0.9-2-2-2s-2,0.9-2,2v3.9c-4-0.8-7.7-4.3-8.6-9.3h4c1.1,0,2-0.9,2-2
		s-0.9-2-2-2H9.1c0.8-4,4.6-7.8,8.6-8.6v4c0,1.1,0.9,2,2,2s2-0.9,2-2V9.1c5,0.8,8.5,4.6,9.3,8.6h-4c-1.1,0-2,0.9-2,2s0.9,2,2,2h3.9
		C30.1,26.7,26.6,30.1,21.6,30.9z"/>
</g>
</svg>
