<?xml version="1.0" encoding="utf-8"?>
<!-- Generator: Adobe Illustrator 23.0.0, SVG Export Plug-In . SVG Version: 6.00 Build 0)  -->
<svg version="1.1" id="Camada_1" xmlns="http://www.w3.org/2000/svg" xmlns:xlink="http://www.w3.org/1999/xlink" x="0px" y="0px"
	 viewBox="0 0 640 512" style="enable-background:new 0 0 640 512;" xml:space="preserve">
<style type="text/css">
	.st0{fill:#F17A59;}
</style>
<path class="st0" d="M112,96c0-17.7,14.3-32,32-32h16c17.7,0,32,14.3,32,32v128v64v128c0,17.7-14.3,32-32,32h-16
	c-17.7,0-32-14.3-32-32v-32H64c-17.7,0-32-14.3-32-32v-64c-17.7,0-32-14.3-32-32s14.3-32,32-32v-64c0-17.7,14.3-32,32-32h48V96z
	 M528,96v32h48c17.7,0,32,14.3,32,32v64c17.7,0,32,14.3,32,32s-14.3,32-32,32v64c0,17.7-14.3,32-32,32h-48v32c0,17.7-14.3,32-32,32
	h-16c-17.7,0-32-14.3-32-32V288v-64V96c0-17.7,14.3-32,32-32h16C513.7,64,528,78.3,528,96z M416,224v64H224v-64H416z"/>
</svg>
