<?xml version="1.0" encoding="utf-8"?>
<!-- Generator: Adobe Illustrator 23.0.0, SVG Export Plug-In . SVG Version: 6.00 Build 0)  -->
<svg version="1.1" id="Camada_1" xmlns="http://www.w3.org/2000/svg" xmlns:xlink="http://www.w3.org/1999/xlink" x="0px" y="0px"
	 viewBox="0 0 256 256" style="enable-background:new 0 0 256 256;" xml:space="preserve">
<path d="M108.8,256h38.4c6.4,0,12.8-6.4,12.8-12.8V108.8c0-6.4-6.4-12.8-12.8-12.8h-38.4c-6.4,0-12.8,6.4-12.8,12.8v134.4
	C96,249.6,102.4,256,108.8,256z M204.8,256h38.4c6.4,0,12.8-6.4,12.8-12.8V12.8C256,6.4,249.6,0,243.2,0h-38.4
	C198.4,0,192,6.4,192,12.8v230.4C192,249.6,198.4,256,204.8,256z M12.8,256h38.4c6.4,0,12.8-6.4,12.8-12.8V44.8
	C64,38.4,57.6,32,51.2,32H12.8C6.4,32,0,38.4,0,44.8v198.4C0,249.6,6.4,256,12.8,256z"/>
</svg>
