<?xml version="1.0" encoding="utf-8"?>
<!-- Generator: Adobe Illustrator 23.0.0, SVG Export Plug-In . SVG Version: 6.00 Build 0)  -->
<svg version="1.1" id="Camada_1" xmlns="http://www.w3.org/2000/svg" xmlns:xlink="http://www.w3.org/1999/xlink" x="0px" y="0px"
	 viewBox="0 0 700 700" style="enable-background:new 0 0 700 700;" xml:space="preserve">
<style type="text/css">
	.st0{fill:none;stroke:#000000;stroke-miterlimit:10;}
	.st1{opacity:0.4;stroke:#FFFFFF;stroke-miterlimit:10;}
</style>
<g>
	<path class="st0" d="M468.9,253.7c-0.2-0.3-0.3-0.5-0.3-0.5c-3.6-7.6-12.3-26.2-14.9-38.6c-2.6-12-7.1-23.7-15.4-32.6
		c-0.2-0.2-0.3-0.2-0.5-0.3c-2.3-2.4-4-5.2-4.7-8.3c-2.3-8.7-6.4-27-7.4-41.4c-1.2-17.5-14.2-30.7-32.6-33.3
		c0,0-14.4-10.2-24.4-11.1l-2.9-18.7c0,0,6.1-9.4,6.6-15.6c0,0,7.4-5,0-14.4c0,0,5-24.6-22.2-27c-27.2,2.4-22.2,27-22.2,27
		c-7.4,9.4,0,14.4,0,14.4c0.5,6.2,6.6,15.6,6.6,15.6l-2.9,18.7c-10.3,0.8-24.7,11-24.7,11c-18.4,2.6-31.4,15.8-32.6,33.3
		c-1,14.4-5.2,32.8-7.4,41.4c-0.7,3.1-2.4,5.9-4.7,8.3c-0.2,0.2-0.3,0.2-0.5,0.3c-8.3,8.8-12.8,20.6-15.4,32.6
		c-2.6,12.5-11.3,31-14.9,38.6c0,0-0.2,0.2-0.3,0.5c-2.4,3.1-15.9,22.5,0.3,26.3c6.1,1.4,9.7,0.3,12-1.7c1.6-1.4,2.6-3.3,2.9-5
		c1-3.5,0.5-6.8,0.5-6.8c0.3-3.6,1.2-6.4,1.9-8.7c1.2-3.1,2.9-6.1,5-8.7c19.2-24.4,26.5-41.4,29.1-51.3c2.8-9.7,6.6-18.9,10.6-28.1
		c4.1-9.3,5.7-16.2,6.4-20.7c0.2-1.4,2.2-1.7,2.7-0.3c8.6,25.8,4.9,63,2.1,82.2c-1.6,6.5-3.2,12.9-4.8,19.3
		c-12.9,37-10.4,91.3-7.4,122.7c1,12.1,0.2,24.3-2.8,36.2c-6.2,23.9-4,77.6-2.8,100c0.3,6.8-1.2,13.3-4.3,19.2l-4.2,7.6
		c-7.8,12.1,1.4,12.1,1.4,12.1h20.4c4.2,0,7.6-3.6,7.4-8c-1.2-32.2,2.6-56,4.5-65.1c0.5-2.8,1.6-5,2.6-7.6
		c6.4-15.6,7.4-46.6,7.6-58.4c0-2.6,0.5-5.2,1.4-7.8c25.8-74,24.6-111.6,24.6-111.6h3c0,0-1.2,37.6,24.6,111.6
		c0.9,2.6,1.4,5.2,1.4,7.8c0.2,11.8,1.2,42.8,7.6,58.4c1,2.6,2.1,4.9,2.6,7.6c1.9,9.2,5.7,32.9,4.5,65.1c-0.2,4.3,3.3,8,7.4,8h20.4
		c0,0,9.2,0,1.4-12.1l-4.2-7.6c-3.1-5.9-4.7-12.5-4.3-19.2c1.2-22.4,3.5-76.1-2.8-100c-2.9-12-3.8-24.1-2.8-36.2
		c2.9-31.4,5.4-85.7-7.4-122.7c-1.6-6.5-3.2-12.9-4.8-19.3c-2.8-19.2-6.4-56.4,2.1-82.2c0.5-1.4,2.5-1.1,2.7,0.3
		c0.6,4.5,2.3,11.3,6.4,20.7c4,9.2,7.8,18.4,10.6,28.1c2.6,9.9,9.9,26.9,29.1,51.3c2.1,2.6,3.8,5.5,5,8.7c0.7,2.3,1.6,5,1.9,8.7
		c0.3,2.1,0.5,4.2,0.5,6.8c0.3,1.7,1.4,3.6,2.9,5c2.3,2.1,5.9,3.1,12,1.7C484.8,276.2,471.3,256.8,468.9,253.7L468.9,253.7z"/>
</g>
<ellipse transform="matrix(0.1836 -0.983 0.983 0.1836 -58.1736 574.806)" class="st1" cx="317" cy="322.4" rx="31.3" ry="15.7"/>
<ellipse transform="matrix(0.9937 -0.1122 0.1122 0.9937 -33.7718 44.939)" class="st1" cx="382.3" cy="322.4" rx="15.7" ry="31.3"/>
<ellipse transform="matrix(0.1836 -0.983 0.983 0.1836 -176.7524 649.8032)" class="st1" cx="302.8" cy="431.3" rx="23.2" ry="9.6"/>
<ellipse transform="matrix(0.9991 -4.301078e-02 4.301078e-02 0.9991 -18.4393 17.4919)" class="st1" cx="397.3" cy="437.3" rx="9.6" ry="23.2"/>
</svg>
