<?xml version="1.0" encoding="utf-8"?>
<!-- Generator: Adobe Illustrator 23.0.0, SVG Export Plug-In . SVG Version: 6.00 Build 0)  -->
<svg version="1.1" id="Camada_1" xmlns="http://www.w3.org/2000/svg" xmlns:xlink="http://www.w3.org/1999/xlink" x="0px" y="0px"
	 viewBox="0 0 700 700" style="enable-background:new 0 0 700 700;" xml:space="preserve">
<g>
	<path d="M528.3,278c29.7-11.9,46.8-27.2,46.8-42.2s-17.1-30.4-46.8-42.2c-32.7-13-76.4-20.2-123-20.2s-90.3,7.2-123,20.2
		c-29.7,11.9-46.8,27.2-46.8,42.2c0,0.5,0,1.1,0.1,1.6v0c0.4,1,0.6,2.2,0.6,3.3v0.4c3.5,13.2,19.9,26.4,46.1,36.9
		c32.7,13,76.4,20.2,123,20.2C451.9,298.2,495.6,291,528.3,278L528.3,278z M305,235.7c0-13.6,11.5-25.6,32.3-33.9
		c18.3-7.3,42.5-11.3,68-11.3c25.6,0,49.7,4,68,11.3c20.9,8.3,32.3,20.4,32.3,33.9s-11.5,25.6-32.3,33.9
		c-18.3,7.3-42.5,11.3-68,11.3s-49.7-4-68-11.3C316.5,261.4,305,249.3,305,235.7z"/>
	<path d="M236.3,271.1v27.8l52.2-0.1c-4.4-1.4-8.6-3-12.6-4.6C259.2,287.6,245.9,279.7,236.3,271.1L236.3,271.1z"/>
	<path d="M488.1,235.7c0,15.3-37.1,27.8-82.8,27.8c-45.8,0-82.8-12.4-82.8-27.8c0-15.3,37.1-27.8,82.8-27.8
		C451.1,208,488.1,220.4,488.1,235.7"/>
	<path d="M172.9,316.5l-48.1,0.1l0,70.6h48.1L172.9,316.5z"/>
	<path d="M408.6,315.7c-0.9,0.3-1.9,0.5-2.9,0.5l-215.4,0.4v70.7h26.3v-36c0-4.8,3.9-8.8,8.8-8.8s8.8,3.9,8.8,8.8v36.1h26.3V373
		c0-4.8,3.9-8.8,8.8-8.8s8.8,3.9,8.8,8.8v14.2h26.3v-36.1c0-4.8,3.9-8.8,8.8-8.8s8.8,3.9,8.8,8.8v36.1h26.3V373
		c0-4.8,3.9-8.8,8.8-8.8s8.8,3.9,8.8,8.8v14.2h26.3v-36.1c0-4.8,3.9-8.8,8.8-8.8s8.8,3.9,8.8,8.8v36c9-0.1,17.8-0.4,26.3-1v-15.3
		c0-4.8,3.9-8.8,8.8-8.8s8.8,3.9,8.8,8.8v13.7c9.2-1.1,17.9-2.4,26.3-4v-38.2c0-2.3,0.9-4.6,2.5-6.2c1.6-1.7,3.9-2.6,6.2-2.6
		s4.6,0.9,6.2,2.6c1.6,1.7,2.5,3.9,2.5,6.2v34.3c8.9-2.2,17.7-4.9,26.3-8.1l0-17.4c0-2.3,0.9-4.6,2.5-6.2c1.6-1.7,3.9-2.6,6.2-2.6
		s4.6,0.9,6.2,2.6c1.6,1.7,2.6,3.9,2.5,6.2v9.8c21.9-11.3,35-24.8,35-37.7v-53c-9.7,9-23.3,17.1-40.5,24
		C500.8,307.7,456.2,315.3,408.6,315.7L408.6,315.7z"/>
</g>
</svg>
