<?xml version="1.0" encoding="utf-8"?>
<!-- Generator: Adobe Illustrator 23.0.0, SVG Export Plug-In . SVG Version: 6.00 Build 0)  -->
<svg version="1.1"
  id="Camada_1"
  xmlns="http://www.w3.org/2000/svg"
  xmlns:xlink="http://www.w3.org/1999/xlink"
  x="0px"
  y="0px"
  width="24"
  height="27"
  viewBox="0 0 516 658"
  style="enable-background:new 0 0 516.8 558.5;"
  xml:space="preserve">
<style type="text/css">
	.st0{fill:#F17A59;}
</style>
<g>
	<path class="st0" d="M198.7,558.5c-23.5,0-48.6-6.9-73.3-20.6C55.1,498.6-13.4,401.1,2.2,279.5c8.6-66.3,34.6-112.6,77.7-137.4
		c77-44.5,178.7-3,183-1.2c5.9,2.6,8.6,9.5,6.2,15.4c-2.5,6-9.3,8.8-15.3,6.5c-0.9-0.4-95.3-38.7-162.1,0
		c-36.2,20.9-58.3,61.3-65.9,119.8C11.5,393.3,73.4,481.8,136.9,517.2c42.8,23.9,84.3,23.8,114-0.3c5.1-4.1,12.6-3.4,16.7,1.7
		c4.1,5.1,3.4,12.6-1.7,16.7C246.8,550.6,223.1,558.8,198.7,558.5L198.7,558.5z"/>
	<path class="st0" d="M73.8,293.5c-0.5,0-1,0-1.5,0c-3.1-0.4-6-2-7.9-4.5c-1.9-2.5-2.8-5.6-2.4-8.8c10.5-81.5,56.9-105.3,93.9-111
		c6-0.2,11.2,4.1,12.1,10.1c0.9,5.9-2.8,11.6-8.5,13.2c-42.1,6.4-67,36.9-73.9,90.6C84.8,289,79.8,293.4,73.8,293.5L73.8,293.5z"/>
	<path class="st0" d="M318.1,558.5c-24.4,0.3-48.2-7.9-67.2-23.2c-5.1-4.1-5.9-11.6-1.7-16.7c4.1-5.1,11.6-5.9,16.7-1.7
		c29.6,24,71.2,24.2,113.9,0.3c63.5-35.4,125.4-124,111.1-234.6c-7.6-58.6-29.7-98.9-65.9-119.8c-66.7-38.7-161.1-0.3-162.1,0
		c-3.5,1.4-7.4,1.2-10.7-0.8c-3.2-1.9-5.3-5.3-5.7-9.1C236.5,45,314.4,4.3,317.7,2.6c5.8-2.9,12.9-0.5,15.8,5.3
		c2.9,5.8,0.7,12.9-5.1,15.9c-2.7,1.4-59.5,31.8-59,111.5c32.1-10.3,107.3-27.9,167.4,6.8c43,24.8,69.1,71,77.7,137.4
		c15.7,121.6-52.8,219.1-123.2,258.3C366.7,551.6,341.6,558.5,318.1,558.5L318.1,558.5z"/>
	<path class="st0" d="M246.1,156.2c-20.4,0-57.1-3.7-83.7-26.9c-37.9-33.2-39-92-39.1-94.4c-0.1-6,4.4-11.2,10.4-11.9
		c2.4-0.3,60.9-7,98.8,26.2c38,33.2,39.1,92,39.1,94.4c0.1,6.1-4.4,11.2-10.4,11.9C256.2,156,251.2,156.2,246.1,156.2L246.1,156.2z
		 M148,45.9c2.1,16.5,8.9,47,30,65.4c21.1,18.4,52.6,21.2,68.9,21.2c-2.1-16.5-8.9-47-30-65.5c-21.1-18.5-51.5-21.1-68.3-21.1
		L148,45.9z"/>
</g>
</svg>
