<?xml version="1.0" encoding="utf-8"?>
<!-- Generator: Adobe Illustrator 23.0.0, SVG Export Plug-In . SVG Version: 6.00 Build 0)  -->
<svg version="1.1"
  id="Camada_1"
  xmlns="http://www.w3.org/2000/svg"
  xmlns:xlink="http://www.w3.org/1999/xlink"
  x="0px"
  y="0px"
  width="24"
  height="27"
  viewBox="0 0 400 582"
  style="enable-background:new 0 0 400 512;"
  xml:space="preserve">
<style type="text/css">
	.st0{fill:#F17A59;}
</style>
<path class="st0" d="M88,8.1c0,0,133.4-8.2,121,104.4c0,0,19.1-74.9,103-40.6c0,0-17.7,74-88,56c0,0,14.6-54.6,66.1-56.6
	c0,0-39.9-10.3-82.1,48.8c0,0-19.8-94.5-93.6-99.7c0,0,75.2,19.4,77.6,107.5C192,128,85.6,134.9,88,8.1z M400,323.7
	c0,48.5-9.7,95.3-32,132.3c-42.2,30.9-105,48-168,48c-62.9,0-125.8-17.1-168-48C9.7,419,0,372.2,0,323.7C0,275.3,17.7,229,40,192
	c42.2-30.9,97.1-48.6,160-48.6c63,0,117.8,17.6,160,48.6C382.3,229,400,275.3,400,323.7z M120,428c0-15.5-12.5-28-28-28
	s-28,12.5-28,28s12.5,28,28,28S120,443.5,120,428z M120,361.8c0-15.5-12.5-28-28-28s-28,12.5-28,28s12.5,28,28,28
	S120,377.3,120,361.8z M120,295.6c0-15.5-12.5-28-28-28s-28,12.5-28,28s12.5,28,28,28S120,311.1,120,295.6z M192,428
	c0-15.5-12.5-28-28-28s-28,12.5-28,28s12.5,28,28,28S192,443.5,192,428z M192,361.8c0-15.5-12.5-28-28-28s-28,12.5-28,28
	s12.5,28,28,28S192,377.3,192,361.8z M192,295.6c0-15.5-12.5-28-28-28s-28,12.5-28,28s12.5,28,28,28S192,311.1,192,295.6z M264,428
	c0-15.5-12.5-28-28-28s-28,12.5-28,28s12.5,28,28,28S264,443.5,264,428z M264,361.8c0-15.5-12.5-28-28-28s-28,12.5-28,28
	s12.5,28,28,28S264,377.3,264,361.8z M264,295.6c0-15.5-12.5-28-28-28s-28,12.5-28,28s12.5,28,28,28S264,311.1,264,295.6z M336,428
	c0-15.5-12.5-28-28-28s-28,12.5-28,28s12.5,28,28,28S336,443.5,336,428z M336,361.8c0-15.5-12.5-28-28-28s-28,12.5-28,28
	s12.5,28,28,28S336,377.3,336,361.8z M336,295.6c0-15.5-12.5-28-28-28s-28,12.5-28,28s12.5,28,28,28S336,311.1,336,295.6z M360,256
	c-4.8-22.3-7.4-36.9-16-56c-38.8-19.9-90.5-32-144-32S94.8,180.1,56,200c-8.8,19.5-11.2,33.9-16,56c42.2-7.9,98.7-14.8,160-14.8
	S317.8,248.1,360,256L360,256z"/>
</svg>
