<?xml version="1.0" encoding="utf-8"?>
<!-- Generator: Adobe Illustrator 23.0.0, SVG Export Plug-In . SVG Version: 6.00 Build 0)  -->
<svg version="1.1" id="Camada_1" xmlns="http://www.w3.org/2000/svg"
  xmlns:xlink="http://www.w3.org/1999/xlink" x="0px" y="0px"
  width="24"
  height="27"
  viewBox="0 0 551 430" style="enable-background:new 0 0 551.1 406;" xml:space="preserve">
<style type="text/css">
	.st0{fill:#F17A59;}
</style>
<g>
	<path class="st0" d="M242.1,308.4c-2.3-6.3-5.8-22.3,9.6-35l12.1-9.9l-252.6,0V11.2h396.6v92.2H419V0H0v274.7h168.8
		c13.7,12.4,10.4,27.6,8.2,33.7c-5.4,15-19.3,25.5-34,25.5h-27.8v47.2h188.7v-47.2h-27.8C261.4,333.9,247.4,323.4,242.1,308.4
		L242.1,308.4z M187.5,312.2c4.8-13.3,3.2-26.6-4-37.5h52c-7.2,10.8-8.7,24.1-4,37.5c3.1,8.7,8.6,16.1,15.3,21.7h-74.6
		C178.9,328.2,184.4,320.8,187.5,312.2L187.5,312.2z M292.7,345.1v24.8H126.4v-24.8H292.7z"/>
	<path class="st0" d="M81.3,244.5v-89.1H31.9v89.1L81.3,244.5L81.3,244.5z M43.1,166.6h27v66.7h-27V166.6z"/>
	<path class="st0" d="M234.2,244.5v-213h-49.4v213H234.2z M196,42.7h27v190.6h-27V42.7z"/>
	<path class="st0" d="M157.8,244.5V112.9h-49.4v131.6L157.8,244.5L157.8,244.5z M119.5,124.1h27v109.2h-27V124.1z"/>
	<path class="st0" d="M337.7,244.5h49.4v-89.1h-49.4V244.5z M348.9,166.6h27v66.7h-27V166.6z"/>
	<path class="st0" d="M436,252.3l-15.4,15.4l-13.8-13.8c14.5-16.4,22.6-37.3,22.6-59.4c0-24-9.4-46.6-26.3-63.5
		c-17-17-39.5-26.3-63.5-26.3s-46.6,9.3-63.5,26.3c-35,35-35,92.1,0,127.1c17,17,39.5,26.3,63.5,26.3c22.1,0,43-8,59.4-22.6
		l13.8,13.8l-15.4,15.3L512.5,406l38.6-38.6L436,252.3z M283.8,138.8c4.8-4.7,10-8.7,15.7-12.1v106.6h-28.3
		C254.1,203.3,258.3,164.3,283.8,138.8L283.8,138.8z M283.8,250c-1.8-1.8-3.4-3.6-5-5.5h31.9V121.2c9.1-3.6,18.8-5.5,28.8-5.5
		c21,0,40.8,8.2,55.6,23c14.9,14.9,23,34.6,23,55.6c0,21-8.2,40.8-23,55.6c-14.9,14.9-34.6,23-55.6,23
		C318.4,273.1,298.7,264.9,283.8,250L283.8,250z M413.2,290.9l22.8-22.8l99.3,99.3l-22.8,22.8L413.2,290.9z"/>
</g>
</svg>
