<?xml version="1.0" encoding="utf-8"?>
<!-- Generator: Adobe Illustrator 23.0.0, SVG Export Plug-In . SVG Version: 6.00 Build 0)  -->
<svg version="1.1"
  id="Layer_1"
  focusable="false"
  xmlns="http://www.w3.org/2000/svg"
  xmlns:xlink="http://www.w3.org/1999/xlink"
  x="0px"
  y="0px"
  viewBox="0 0 595.3 841.9"
  width="24"
  height="24"
  style="enable-background:new 0 0 595.3 841.9;"
  xml:space="preserve">
<style type="text/css">
	.st0{fill:#F17A59;}
</style>
<g>
	<g>
		<path class="st0" d="M178.6,420.9c57.6,0,104.2-46.6,104.2-104.2s-46.6-104.2-104.2-104.2S74.4,259.2,74.4,316.8
			S121,420.9,178.6,420.9z M250,450.7h-7.7c-19.3,9.3-40.8,14.9-63.7,14.9s-44.3-5.6-63.7-14.9h-7.7C48,450.7,0,498.7,0,557.9v26.8
			c0,24.6,20,44.6,44.6,44.6h267.9c24.6,0,44.6-20,44.6-44.6v-26.8C357.2,498.7,309.2,450.7,250,450.7z M446.5,420.9
			c49.3,0,89.3-40,89.3-89.3s-40-89.3-89.3-89.3s-89.3,40-89.3,89.3C357.2,381,397.2,420.9,446.5,420.9z M491.1,450.7h-3.5
			c-12.9,4.5-26.6,7.4-41.1,7.4s-28.2-3-41.1-7.4h-3.5c-19,0-36.5,5.5-51.8,14.3c22.7,24.5,36.9,56.9,36.9,92.8v35.7
			c0,2-0.5,4-0.6,6h164.3c24.6,0,44.6-20,44.6-44.6C595.3,497.3,548.7,450.7,491.1,450.7z"/>
	</g>
	<path class="st0" d="M132.4,165.2c43.1-43.1,100.5-66.9,161.5-66.9c55.6,0,108.2,19.8,149.7,55.9h-30.3c-7.8,0-14.1,6.3-14.1,14.1
		c0,7.8,6.3,14.1,14.1,14.1h59.5c7.8,0,14.1-6.3,14.1-14.1v-59.5c0-7.8-6.3-14.1-14.1-14.1c-7.8,0-14.1,6.3-14.1,14.1v21.2
		c-46.1-38.8-103.9-60-164.9-60c-68.5,0-133,26.7-181.4,75.1c-5.5,5.5-5.5,14.4,0,19.9C118,170.7,126.9,170.7,132.4,165.2z"/>
	<path class="st0" d="M462.9,707.2c-43.1,43.1-100.5,66.9-161.5,66.9c-55.6,0-108.2-19.8-149.7-55.9h30.3c7.8,0,14.1-6.3,14.1-14.1
		c0-7.8-6.3-14.1-14.1-14.1h-59.5c-7.8,0-14.1,6.3-14.1,14.1v59.5c0,7.8,6.3,14.1,14.1,14.1c7.8,0,14.1-6.3,14.1-14.1v-21.2
		c46.1,38.8,103.9,60,164.9,60c68.5,0,133-26.7,181.4-75.1c5.5-5.5,5.5-14.4,0-19.9C477.3,701.7,468.4,701.7,462.9,707.2z"/>
</g>
</svg>
