<?xml version="1.0" encoding="utf-8"?>
<!-- Generator: Adobe Illustrator 23.0.0, SVG Export Plug-In . SVG Version: 6.00 Build 0)  -->
<svg version="1.1" id="Camada_1" xmlns="http://www.w3.org/2000/svg"
  xmlns:xlink="http://www.w3.org/1999/xlink" x="0px" y="0px"
  viewBox="0 0 528.6 560.2"
  width="24"
  height="24"
  style="enable-background:new 0 0 528.6 560.2;" xml:space="preserve">
<style type="text/css">
	.st0{fill:#F17A59;}
</style>
<g>
	<path class="st0" d="M185.4,285.6h-72.8L49.3,176.4l63.3-109.2h98.6c3.4,0,5.6,2.8,5.6,5.6c0,3.4-2.8,5.6-5.6,5.6l-91.8,0l-56.6,98
		l56.6,98h66.1c3.4,0,5.6,2.8,5.6,5.6S188.2,285.6,185.4,285.6L185.4,285.6z"/>
	<path class="st0" d="M239.7,276.1c-1.1,0-2.2,0-2.8-0.6c-2.8-1.7-3.4-5-2.2-7.8l53.8-91.3l-45.9-79.5c-1.7-2.8-0.6-6.2,2.2-7.8
		c2.8-1.7,6.2-0.6,7.8,2.2l49.3,85.1l-57.1,96.9C243.6,275.5,241.9,276.1,239.7,276.1L239.7,276.1z"/>
	<path class="st0" d="M288.4,78.4c-3.4,0-5.6-2.8-5.6-5.6c0-25.8-21.3-47-47-47c-3.4,0-5.6-2.8-5.6-5.6c0-3.4,2.8-5.6,5.6-5.6
		c32.5,0,58.8,26.3,58.8,58.8C294,76.2,291.8,78.4,288.4,78.4L288.4,78.4z"/>
	<path class="st0" d="M235.8,103c-16.8,0-30.2-13.4-30.2-30.2c0-16.8,13.4-30.2,30.2-30.2c16.8,0,30.2,13.4,30.2,30.2
		C266,89.6,252,103,235.8,103z M235.8,54.3c-10.1,0-18.5,8.4-18.5,18.5c0,10.1,8.4,18.5,18.5,18.5c10.1,0,18.5-8.4,18.5-18.5
		S245.8,54.3,235.8,54.3z"/>
	<path class="st0" d="M115.9,78.4c-2.2,0-3.9-1.1-5-2.8L95.2,48.2c-1.7-2.8-0.6-6.2,2.2-7.8c2.8-1.7,6.2-0.6,7.8,2.2L121,70
		c1.7,2.8,0.6,6.2-2.2,7.8C118.2,78.4,117,78.4,115.9,78.4L115.9,78.4z"/>
	<path class="st0" d="M87.9,52.1c-2.8,0-6.2-0.6-9-1.7c-13.4-5-20.7-20.2-15.7-33.6c5-13.4,20.2-20.7,33.6-15.7
		c13.4,5,20.7,20.2,15.7,33.6C108.1,45.4,98.6,52.1,87.9,52.1L87.9,52.1z M82.9,39.8c7.3,2.8,15.7-1.1,18.5-9
		c2.8-7.3-1.1-15.7-9-18.5c-7.3-2.8-15.7,1.1-18.5,9C71.1,28.6,75,37,82.9,39.8L82.9,39.8z"/>
	<path class="st0" d="M56,182H26.9c-3.4,0-5.6-2.8-5.6-5.6s2.8-5.6,5.6-5.6H56c3.4,0,5.6,2.8,5.6,5.6S59.4,182,56,182z"/>
	<path class="st0" d="M95.2,182c-1.1,0-2.2,0-2.8-0.6c-2.8-1.7-3.9-5-2.2-7.8l38.1-66.1c1.7-2.8,5-3.9,7.8-2.2
		c2.8,1.7,3.9,5,2.2,7.8l-38.1,66.1C99.1,180.9,97.4,182,95.2,182L95.2,182z"/>
	<path class="st0" d="M189.3,492.8H90.7c-3.4,0-5.6-2.8-5.6-5.6s2.8-5.6,5.6-5.6h91.8l53.8-93c1.7-2.8,5-3.9,7.8-2.2
		c2.8,1.7,3.9,5,2.2,7.8L189.3,492.8z"/>
	<path class="st0" d="M221.8,347.8c-2.2,0-3.9-1.1-5-2.8l-35.8-62.2c-1.7-2.8-0.6-6.2,2.2-7.8c2.8-1.7,6.2-0.6,7.8,2.2l35.8,62.2
		c1.7,2.8,0.6,6.2-2.2,7.8C224,347.8,222.9,347.8,221.8,347.8L221.8,347.8z"/>
	<path class="st0" d="M54.3,471.5c-2.2,0-3.9-1.1-5-2.8L0,383.6l62.7-104.2c1.7-2.8,5-3.4,7.8-1.7c2.8,1.7,3.4,5,1.7,7.8l-58.8,98
		l45.9,79.5c1.7,2.8,0.6,6.2-2.2,7.8C56,471.5,55.4,471.5,54.3,471.5L54.3,471.5z"/>
	<path class="st0" d="M66.6,546c-32.5,0-58.8-26.3-58.8-58.8c0-3.4,2.8-5.6,5.6-5.6c3.4,0,5.6,2.8,5.6,5.6c0,25.8,21.3,47,47,47
		c3.4,0,5.6,2.8,5.6,5.6C71.7,542.6,69.4,546,66.6,546L66.6,546z"/>
	<path class="st0" d="M66.6,517.4c-16.8,0-30.2-13.4-30.2-30.2c0-16.8,13.4-30.2,30.2-30.2c16.8,0,30.2,13.4,30.2,30.2
		C96.3,504,82.9,517.4,66.6,517.4z M66.6,468.7c-10.1,0-18.5,8.4-18.5,18.5c0,10.1,8.4,18.5,18.5,18.5c10.1,0,18.5-8.4,18.5-18.5
		C85.1,477.1,76.7,468.7,66.6,468.7z"/>
	<path class="st0" d="M201.6,520.8c-2.2,0-3.9-1.1-5-2.8l-15.7-27.4c-1.7-2.8-0.6-6.2,2.2-7.8c2.8-1.7,6.2-0.6,7.8,2.2l15.7,27.4
		c1.7,2.8,0.6,6.2-2.2,7.8C203.8,520.2,202.7,520.8,201.6,520.8L201.6,520.8z"/>
	<path class="st0" d="M214.5,560c-2.8,0-6.2-0.6-9-1.7c-13.4-5-20.7-20.2-15.7-33.6c5-13.4,20.2-20.7,33.6-15.7
		c13.4,5,20.7,20.2,15.7,33.6c-2.8,6.7-7.3,11.8-14,15.1C221.8,559.4,217.8,560,214.5,560L214.5,560z M214.5,519.1
		c-6.2,0-11.8,3.9-13.4,9.5c-2.8,7.3,1.1,15.7,9,18.5c3.9,1.1,7.8,1.1,11.2-0.6s6.2-4.5,7.3-8.4c2.8-7.3-1.1-15.7-9-18.5
		C217.8,519.7,216.2,519.1,214.5,519.1L214.5,519.1z"/>
	<path class="st0" d="M168.6,455.3c-1.1,0-2.2,0-2.8-0.6c-2.8-1.7-3.9-5-2.2-7.8l38.1-66.1c1.7-2.8,5-3.9,7.8-2.2
		c2.8,1.7,3.9,5,2.2,7.8l-38.1,66.1C172.5,454.2,170.2,455.3,168.6,455.3L168.6,455.3z"/>
	<path class="st0" d="M387,261.5c-33,0-59.4-26.9-59.4-59.4s26.9-59.4,59.4-59.4s59.4,26.9,59.4,59.4S420,261.5,387,261.5z M387,154
		c-26.3,0-48.2,21.8-48.2,48.2s21.8,48.2,48.2,48.2s48.2-21.8,48.2-48.2C435.1,175.3,413.8,154,387,154L387,154z"/>
	<path class="st0" d="M448,560c-4.5,0-9.5-1.1-13.4-3.4c-6.7-3.9-11.8-10.1-13.4-17.4l-32.5-115.9c-0.6-1.1-1.1-2.2-2.2-3.4
		c-1.1-0.6-2.8-1.1-3.9-0.6c-1.7,0.6-2.8,2.2-3.4,3.9l-31.4,115.9c-2.2,7.3-6.7,13.4-13.4,17.4c-6.7,3.9-14.6,4.5-21.8,2.2
		c-14.6-4.5-22.4-20.2-18.5-34.7l20.7-76.2c6.7-24.6,10.1-50.4,10.1-75.6v-37.5l-45.9,40.9c-4.5,3.9-10.6,6.2-16.8,6.2
		c-6.2-0.6-12.3-3.4-16.2-7.8c-4.5-4.5-6.2-10.6-6.2-16.8c0.6-6.2,3.4-12.3,7.8-16.2l63.8-58.8l22.4-20.2c2.2-2.2,6.2-1.7,7.8,0.6
		c2.2,2.2,1.7,6.2-0.6,7.8l-22.4,20.2l-63.8,57.1c-2.2,2.2-3.9,5-3.9,8.4s1.1,6.2,3.4,9c2.2,2.2,5,3.9,8.4,3.9s6.2-1.1,9-3.4
		l65.5-57.7v63.3c0,26.9-3.4,53.2-10.6,79l-20.7,76.2c-2.2,9,2.2,18.5,10.6,21.3c4.5,1.1,9,1.1,12.9-1.1c3.9-2.2,6.7-5.6,7.8-10.1
		l31.4-115.9c1.7-5.6,6.2-10.6,11.8-11.8c4.5-1.1,9-0.6,12.9,1.7c3.9,2.2,6.7,5.6,7.8,10.1l31.4,115.4c1.1,4.5,3.9,8.4,7.8,10.6
		c3.9,2.2,8.4,2.8,12.9,1.1c8.4-2.8,13.4-11.2,11.2-19.6l-4.5-18.5c-5.6-20.7-28-110.3-28-138.3V308l65.5,57.7
		c2.2,2.2,5.6,3.4,9,3.4s6.2-1.7,8.4-3.9c2.2-2.2,3.4-5.6,3.4-9s-1.7-6.2-3.9-8.4L449.7,289l-22.4-19.6c-2.2-2.2-2.8-5.6-0.6-7.8
		c2.2-2.2,5.6-2.8,7.8-0.6l22.4,20.2l63.8,58.8c4.5,3.9,7.3,10.1,7.8,16.2c0.6,6.2-1.7,12.3-6.2,16.8c-9,9.5-23.5,10.6-33.6,1.7
		L443,333.8v38.1c0,25.2,20.2,108.1,28,135.5l4.5,18.5c3.4,14.6-4.5,29.1-19,33.6C454.2,559.4,450.8,560,448,560L448,560z"/>
</g>
</svg>
