<?xml version="1.0" encoding="utf-8"?>
<!-- Generator: Adobe Illustrator 27.2.0, SVG Export Plug-In . SVG Version: 6.00 Build 0)  -->
<svg version="1.1" id="Camada_1" focusable="false" xmlns="http://www.w3.org/2000/svg" xmlns:xlink="http://www.w3.org/1999/xlink"
	 x="0px" y="0px" viewBox="0 0 512 512" style="enable-background:new 0 0 512 512;" xml:space="preserve">
<g transform="translate(128 128) scale(0.72 0.72)">
	<g transform="translate(-175.05 -175.05000000000004) scale(3.89 3.89)">
		<path d="M90.9,1.4c-48.2,0-87.3,40-87.3,89.3S42.7,180,90.9,180c48.2,0,87.3-40,87.3-89.3S139.1,1.4,90.9,1.4z M90.9,45.1
			c17.3,0,31.3,14.4,31.3,32c0,17.7-14,32-31.3,32c-17.3,0-31.3-14.4-31.3-32C59.6,59.5,73.6,45.1,90.9,45.1z M90.9,167.7
			c-21.6,0-41-9.7-54.2-25c6.2-11.4,15.8-20.8,27.3-26.5c3.9-1.9,8.4-1.9,12.5,0.1c4.5,2.2,9.4,3.4,14.5,3.4c5.1,0,10-1.1,14.5-3.4
			c4-2,8.6-2,12.5-0.1c11.5,5.7,21.1,15.1,27.3,26.5C131.9,158.1,112.5,167.7,90.9,167.7z"/>
	</g>
</g>
</svg>
