<?xml version="1.0" encoding="utf-8"?>
<!-- Generator: Adobe Illustrator 23.0.0, SVG Export Plug-In . SVG Version: 6.00 Build 0)  -->
<svg version="1.1" id="Camada_1" xmlns="http://www.w3.org/2000/svg"
  xmlns:xlink="http://www.w3.org/1999/xlink" x="0px" y="0px"
  viewBox="0 0 256 256"
  width="24"
  height="24"
  style="enable-background:new 0 0 256 256;" xml:space="preserve">
<style type="text/css">
	.st0{fill:#FAFAFA;}
</style>
<g>
	<path d="M251,256.7H5.6c-2.8,0-5-2.3-5-5l0-245.4c0-2.8,2.3-5,5-5H251c2.8,0,5,2.3,5,5v245.4C256,254.4,253.8,256.7,251,256.7z"/>
	<path class="st0" d="M198.8,204.5H57.8c-2.8,0-5-2.3-5-5V58.5c0-2.8,2.3-5,5-5h140.9c2.8,0,5,2.3,5,5v140.9
		C203.8,202.2,201.5,204.5,198.8,204.5z"/>
</g>
</svg>
