<?xml version="1.0" encoding="utf-8"?>
<!-- Generator: Adobe Illustrator 23.0.0, SVG Export Plug-In . SVG Version: 6.00 Build 0)  -->
<svg version="1.1" id="Layer_1" focusable="false" xmlns="http://www.w3.org/2000/svg"
  xmlns:xlink="http://www.w3.org/1999/xlink"
  x="0px" y="0px"
  viewBox="0 0 357.2 416.7"
  width="24"
  height="27"
  style="enable-background:new 0 0 357.2 416.7;"
  xml:space="preserve">
<style type="text/css">
	.st0{fill:#F17A59;}
</style>
<path class="st0" d="M178.6,208.3c57.6,0,104.2-46.6,104.2-104.2S236.2,0,178.6,0C121,0,74.4,46.6,74.4,104.2S121,208.3,178.6,208.3
	z M250,238.1h-7.7c-19.3,9.3-40.8,14.9-63.7,14.9s-44.3-5.6-63.7-14.9h-7.7C48,238.1,0,286.1,0,345.3v26.8c0,24.6,20,44.6,44.6,44.6
	h267.9c24.6,0,44.6-20,44.6-44.6v-26.8C357.2,286.1,309.2,238.1,250,238.1z"/>
</svg>
