<?xml version="1.0" encoding="utf-8"?>
<!-- Generator: Adobe Illustrator 27.4.1, SVG Export Plug-In . SVG Version: 6.00 Build 0)  -->
<svg version="1.1" id="Camada_1" focusable="false" xmlns="http://www.w3.org/2000/svg"
  xmlns:xlink="http://www.w3.org/1999/xlink"
  x="0px" y="0px" viewBox="0 0 512 512" style="enable-background:new 0 0 512 512;"
  xml:space="preserve">
<style type="text/css">
	.st0{fill:#F17A59;}
</style>
<g>
	<path class="st0" d="M395.6,512H116.4C52.4,512,0,459.6,0,395.6l0-279.3C0,52.4,52.4,0,116.4,0l279.3,0C459.6,0,512,52.4,512,116.4
		v279.3C512,459.6,459.6,512,395.6,512z"/>
	<path class="st1" d="M290.9,407.3h-69.8c-64,0-116.4-52.4-116.4-116.4v-69.8c0-64,52.4-116.4,116.4-116.4h69.8
		c64,0,116.4,52.4,116.4,116.4v69.8C407.3,354.9,354.9,407.3,290.9,407.3z"/>
</g>
</svg>
